<?xml version="1.0" encoding="iso-8859-1"?>
<!-- Generator: Adobe Illustrator 19.1.0, SVG Export Plug-In . SVG Version: 6.00 Build 0)  -->
<svg version="1.1" id="Capa_1" xmlns="http://www.w3.org/2000/svg" xmlns:xlink="http://www.w3.org/1999/xlink" x="0px" y="0px"
	 viewBox="0 0 538.681 538.681" style="enable-background:new 0 0 538.681 538.681;" xml:space="preserve">
<g>
	<g>
		<path d="M513.781,84.944c-0.42,0-2.1-0.841-2.52-0.841h-6.72V29.436c0-15.559-14.28-29.436-29.82-29.436h-447.3
			c-15.96,0-26.88,13.457-26.88,29.436v115.642c0,15.559,10.92,27.334,26.88,27.334h447.3c15.54,0,29.82-11.774,29.82-27.334
			v-44.154h5.88c5.46,4.205,10.92,7.99,10.92,13.457v67.283c0,7.149-7.14,11.354-14.28,11.354h-234.78
			c-16.38,0-28.14,14.298-28.14,30.698v11.774h-54.6c-2.1,0-3.78,1.682-4.2,3.785c-0.42,1.682,0.84,4.205,2.94,5.046
			c4.62,2.523,18.06,11.354,18.06,18.923v251.048c0,13.877,10.08,24.39,23.94,24.39h42c13.86,0,26.46-10.513,26.46-24.39V262.823
			c0-7.569,12.18-16.4,16.8-18.503c1.68-0.841,2.1-3.364,1.68-5.046c-0.42-1.682-2.52-3.785-4.2-3.785h-52.08v-11.354
			c0-7.149,4.62-13.877,11.34-13.877h234.78c16.38,0,31.08-12.195,31.08-28.175v-67.283
			C538.141,100.503,527.221,87.888,513.781,84.944z M27.421,16.821h447.3c6.3,0,13.02,5.887,13.02,12.615v23.549
			c-12.6-8.831-22.68-13.457-36.54-13.457c-28.98,0-52.92,23.549-52.92,52.985l0,0c0,21.026-17.22,39.529-39.48,39.529
			s-39.06-18.503-39.06-40.79v-4.205c0-24.39-19.74-44.154-44.1-44.154s-44.1,19.764-44.1,44.154v4.205
			c0,10.513-8.4,18.923-18.9,18.923s-18.9-8.41-18.9-18.923v-6.728c0-16.4-13.02-29.436-29.4-29.436s-29.4,13.036-29.4,29.436v4.626
			c0,21.026-16.8,37.846-37.8,37.846s-37.8-16.821-37.8-37.846v-4.205c0-16.4-13.02-29.436-29.4-29.436
			c-4.62,0-8.4,1.262-12.6,2.944V29.436C17.341,22.708,20.701,16.821,27.421,16.821z"/>
	</g>
</g>
<g>
</g>
<g>
</g>
<g>
</g>
<g>
</g>
<g>
</g>
<g>
</g>
<g>
</g>
<g>
</g>
<g>
</g>
<g>
</g>
<g>
</g>
<g>
</g>
<g>
</g>
<g>
</g>
<g>
</g>
</svg>
