<?xml version="1.0" standalone="no"?>
<!DOCTYPE svg PUBLIC "-//W3C//DTD SVG 20010904//EN"
 "http://www.w3.org/TR/2001/REC-SVG-20010904/DTD/svg10.dtd">
<svg version="1.0" xmlns="http://www.w3.org/2000/svg"
 width="300.000000pt" height="343.000000pt" viewBox="0 0 300.000000 343.000000"
 preserveAspectRatio="xMidYMid meet">
<metadata>
Created by potrace 1.10, written by Peter Selinger 2001-2011
</metadata>
<g transform="translate(0.000000,343.000000) scale(0.050000,-0.050000)"
fill="#000000" stroke="none">
<path d="M0 5180 l0 -60 526 0 526 0 37 -125 c35 -119 86 -289 161 -539 52
-170 66 -166 322 87 192 189 229 218 240 185 18 -53 239 -553 388 -878 30 -66
89 -196 130 -290 42 -93 104 -233 139 -310 36 -77 112 -248 171 -380 162 -364
151 -361 340 -80 77 116 149 210 158 210 10 0 86 -119 169 -265 351 -612 305
-574 523 -431 77 50 266 170 420 266 154 96 327 205 383 242 57 38 110 68 117
68 7 0 154 -129 326 -288 173 -158 449 -411 614 -562 l300 -275 6 75 c6 68 -3
85 -83 158 -49 45 -271 249 -494 452 -222 204 -455 417 -517 474 -151 141 -25
193 -950 -391 -142 -90 -265 -163 -274 -163 -18 0 -117 163 -367 607 -166 294
-162 294 -356 0 -132 -201 -145 -211 -166 -142 -13 39 -77 183 -189 425 -20
44 -79 175 -131 290 -51 116 -115 260 -143 320 -28 61 -140 313 -251 560 -269
605 -226 580 -505 300 -199 -200 -230 -223 -230 -173 0 15 -22 98 -49 185 -27
87 -72 237 -101 333 l-52 175 -569 0 -569 0 0 -60z"/>
</g>
</svg>
