<?xml version="1.0" standalone="no"?>
<!DOCTYPE svg PUBLIC "-//W3C//DTD SVG 20010904//EN" "http://www.w3.org/TR/2001/REC-SVG-20010904/DTD/svg10.dtd">
<svg version="1.0" xmlns="http://www.w3.org/2000/svg" width="300.000000pt" height="343.000000pt" viewBox="0 0 300.000000 343.000000" preserveAspectRatio="xMidYMid meet">
    <metadata>
        Created by potrace 1.10, written by Peter Selinger 2001-2011
    </metadata>
    <g transform="translate(0.000000,343.000000) scale(0.100000,-0.100000)" fill="#000000" stroke="#000000" stroke-width="4">
        <path class="path" d="M0 2590 l0 -30 264 0 263 0 23 -77 c12 -43 30 -103 39 -133 10 -30
26 -83 36 -117 26 -89 39 -86 165 42 57 58 106 102 110 98 4 -4 15 -28 24 -53
10 -25 28 -67 41 -95 72 -156 104 -225 215 -475 141 -317 187 -419 199 -440
20 -36 40 -20 113 90 84 127 68 129 152 -15 29 -49 79 -134 110 -187 31 -54
62 -98 68 -98 5 0 30 14 55 30 24 17 46 30 49 30 3 0 17 9 32 19 83 59 414
262 421 259 9 -3 72 -60 380 -343 108 -99 207 -189 219 -199 l22 -19 0 39 c-1
38 -7 45 -182 204 -99 91 -206 188 -236 215 -31 28 -86 78 -123 113 -36 34
-71 62 -78 62 -6 0 -24 -8 -39 -19 -15 -10 -115 -74 -222 -141 -107 -67 -207
-131 -222 -141 -15 -10 -32 -19 -38 -19 -5 0 -10 -4 -10 -10 0 -31 -29 11
-134 194 -119 208 -137 233 -156 221 -6 -4 -40 -51 -77 -106 -36 -54 -68 -99
-72 -99 -4 0 -16 21 -28 48 -11 26 -82 184 -158 352 -291 650 -298 665 -321
668 -14 2 -50 -28 -122 -102 -80 -82 -104 -102 -108 -88 -3 9 -10 28 -14 42
-5 14 -23 75 -40 135 -17 61 -38 125 -45 143 l-15 32 -280 0 -280 0 0 -30z
m1413 -1223 c4 3 7 1 7 -5 0 -22 -19 -22 -31 0 -11 20 -10 21 3 11 8 -7 18
-10 21 -6z" />
    </g>
</svg>
